# xmcd
#
# Track frame offsets:
#	150
#	14313
#	37801
#	53401
#
# Disc length: 866 seconds
# Revision: 0
# Processed by: cddbd v1.5.2PL0 Copyright (c) Steve Scherf et al.
# Submitted via: dBpowerAMP V12.0
#
DISCID=1f036004
DTITLE=Various / SMT Devil Survivor 2 Record Breaker Arranged Soundtrack
DYEAR=2015
DGENRE=Soundtrack
TTITLE0=Atsushi Kitajoh / at Last
TTITLE1=Toshiki Konishi / Triangulum
TTITLE2=Ryota Kozuka / Providence
TTITLE3=Kenichi Tsuchiya / Threat and Vulnerability
EXTD=
EXTT0=
EXTT1=
EXTT2=
EXTT3=
PLAYORDER=
